<svg width="333" height="96" viewBox="0 0 333 96" fill="none" xmlns="http://www.w3.org/2000/svg">
<path d="M79.75 89.25C78.0417 89.4583 76.3958 89.7708 74.8125 90.1875C73.2292 90.6042 71.75 91.0833 70.375 91.625C69 92.1667 67.7708 92.7292 66.6875 93.3125C65.6042 93.8958 64.7083 94.4583 64 95C63.3333 92.4583 62.25 88.6667 60.75 83.625C59.25 78.5833 57.3125 72.25 54.9375 64.625C52.6875 64.4167 50.4375 64.25 48.1875 64.125C45.9792 64 43.7083 63.9375 41.375 63.9375C40.7083 63.9375 40.1042 63.9583 39.5625 64C39.0208 64 38.5417 64 38.125 64C30.9167 64 25.0417 64.375 20.5 65.125L19.875 65.25C17.5417 71.8333 15.7708 77.0625 14.5625 80.9375C13.3542 84.8125 12.75 87.3958 12.75 88.6875V89.5C6.875 90.6667 2.625 92.5 0 95C2.875 89.2083 5.91667 82.6458 9.125 75.3125C12.3333 67.9375 15.75 59.6667 19.375 50.5C25.9167 33.8333 29.9792 19.8333 31.5625 8.5L31.8125 6C36.8958 5.45833 42.1458 3.64583 47.5625 0.5625C48.8542 12.9375 53.0833 28.7292 60.25 47.9375C67.9583 68.6875 74.4583 82.4583 79.75 89.25ZM53 58.375L50.3125 49.8125C47.4792 40.7708 45.0625 33.7083 43.0625 28.625C41.1042 23.5 39.5833 20.2917 38.5 19C36.2917 22.25 31.8333 32.875 25.125 50.875L22.375 58.25C24.5 58.4583 26.7292 58.625 29.0625 58.75C31.4375 58.875 33.9375 58.9375 36.5625 58.9375H37.875C44.0833 58.9375 49.125 58.75 53 58.375ZM86.7812 95C88.125 85.625 88.7969 75.125 88.7969 63.5C88.7969 61.7812 88.7812 60.0938 88.75 58.4375C88.5 44.75 87.9375 35.25 87.0625 29.9375L86.7812 28.3438C90.5938 27.9062 94.4219 26.5781 98.2656 24.3594L98.5938 24.1719C97.1875 33.0469 96.4844 43.7969 96.4844 56.4219C96.4844 56.9531 96.4844 57.5 96.4844 58.0625C96.4844 73.0625 97.0625 83.375 98.2188 89L98.5938 90.6875C96.4688 90.9375 94.5625 91.375 92.875 92C90.1562 93 88.125 94 86.7812 95ZM112.656 95C113.844 85.625 114.438 77.8438 114.438 71.6562C114.438 68.5625 114.422 66.875 114.391 66.5938C114.328 59.3125 113.828 52.7656 112.891 46.9531L112.656 46.2031C116.438 45.7656 120.266 44.4375 124.141 42.2188L124.469 42.0312C123.844 43.875 123.172 46 122.453 48.4062L132.719 42.0312C134.5 42.5 136.703 43.4062 139.328 44.75C141.797 46.0312 144.141 47.7344 146.359 49.8594L164.5 42.0312C166.281 42.5 168.484 43.4062 171.109 44.75C173.547 46.0312 175.891 47.7344 178.141 49.8594C180.891 52.4844 182.828 55.375 183.953 58.5312C185.172 61.5312 185.828 64.8125 185.922 68.375C186.203 77.4688 186.781 84.3438 187.656 89L188.031 90.6875C185.938 90.9375 184.031 91.375 182.312 92C179.594 93 177.562 94 176.219 95C177.438 86.8125 178.047 78.8906 178.047 71.2344C178.016 70.2344 178 69.3438 178 68.5625C178 64.9688 177.438 62.25 176.312 60.4062C174.406 57.5625 171.688 55.2969 168.156 53.6094C162.531 50.9219 157.531 49.5781 153.156 49.5781C150.969 49.5781 148.938 49.9062 147.062 50.5625C149.438 53.0312 151.141 55.6875 152.172 58.5312C153.391 61.5312 154.047 64.8125 154.141 68.375C154.422 77.4688 155 84.3438 155.875 89L156.25 90.6875C154.156 90.9375 152.25 91.375 150.531 92C147.812 93 145.781 94 144.438 95C145.656 86.8125 146.266 78.8906 146.266 71.2344C146.234 70.2344 146.219 69.3438 146.219 68.5625C146.219 64.9688 145.656 62.25 144.531 60.4062C142.656 57.6562 139.938 55.3906 136.375 53.6094C133.25 52.0469 128.625 50.6406 122.5 49.3906H122.453C122.234 51.6719 122.125 56.7344 122.125 64.5781V66.2188C122.125 75 122.781 82.5938 124.094 89L124.469 90.6875C122.344 90.9375 120.438 91.375 118.75 92C116.031 93 114 94 112.656 95ZM218.875 95.1875C217.031 94.75 214.812 93.8438 212.219 92.4688C209.625 91.0625 207.281 89.3594 205.188 87.3594C202.438 84.7031 200.516 81.8125 199.422 78.6875C198.359 76.0938 197.688 72.8125 197.406 68.8438V68.6562C197.406 65.3125 198.172 61.8594 199.703 58.2969C200.859 55.5781 202.406 53.1562 204.344 51.0312C205.156 50.1562 206.094 49.3125 207.156 48.5L217 42.0312C218.656 42.5938 221.484 43.9062 225.484 45.9688C228.391 47.4688 231.203 49.7188 233.922 52.7188C235.922 55.8438 236.922 58.7344 236.922 61.3906C236.922 61.4531 236.922 61.5312 236.922 61.625C236.453 65.4375 234.703 68.5 231.672 70.8125C226.516 74.75 220.094 76.75 212.406 76.8125C222.094 73.5 227.828 69.6719 229.609 65.3281C229.984 64.4219 230.172 63.5312 230.172 62.6562C230.172 62.625 230.172 62.5938 230.172 62.5625C230.172 62.5312 230.172 62.5 230.172 62.4688C230.172 61.1562 229.625 59.875 228.531 58.625C226.812 56.5938 224.344 54.7812 221.125 53.1875C215.625 50.4688 211.156 48.9375 207.719 48.5938C206.531 50.5312 205.453 53.4688 204.484 57.4062C203.734 60.4688 203.359 63.125 203.359 65.375C203.359 66.4375 203.438 67.4531 203.594 68.4219C204.031 71.2031 205.188 74 207.062 76.8125C209 79.6875 211.703 81.9531 215.172 83.6094C218.172 85.0469 222.781 86.4688 229 87.875L229.047 87.8281C229.547 87.0469 229.797 85.6875 229.797 83.75C229.797 82.5312 229.594 80.9375 229.188 78.9688L235.844 81.5938C235 83.5 233.625 85.2188 231.719 86.75C230.281 87.9062 229.562 88.5 229.562 88.5312L218.875 95.1875ZM248.688 95C249.281 90.2812 249.719 86 250 82.1562C250.312 78.2812 250.469 74.7812 250.469 71.6562C250.469 69.125 250.438 66.7656 250.375 64.5781C250.344 62.3594 250.266 60.2656 250.141 58.2969C250.016 56.2969 249.844 54.375 249.625 52.5312C249.438 50.6875 249.203 48.8281 248.922 46.9531L248.688 46.2031C250.594 45.9844 252.484 45.5469 254.359 44.8906C256.266 44.2031 258.203 43.3125 260.172 42.2188L260.5 42.0312C260.188 42.9375 259.859 43.9375 259.516 45.0312C259.172 46.0938 258.828 47.2188 258.484 48.4062L268.75 42.0312C270 42.375 271.547 42.9844 273.391 43.8594C275.266 44.7031 277.156 45.8281 279.062 47.2344C280.969 48.6094 282.75 50.25 284.406 52.1562C286.094 54.0312 287.359 56.1562 288.203 58.5312L279.719 62C278.438 59.6562 276.969 57.6875 275.312 56.0938C273.656 54.4688 271.953 53.1562 270.203 52.1562C268.453 51.125 266.734 50.3906 265.047 49.9531C263.359 49.4844 261.844 49.25 260.5 49.25C259.844 49.25 259.188 49.2969 258.531 49.3906H258.484C258.359 50.5469 258.266 52.3906 258.203 54.9219C258.172 57.4219 258.156 60.6406 258.156 64.5781V66.2188C258.156 75 258.812 82.5938 260.125 89L260.5 90.6875C259.281 90.8438 258.078 91.0781 256.891 91.3906C255.703 91.7031 254.578 92.0781 253.516 92.5156C252.484 92.9219 251.547 93.3438 250.703 93.7812C249.859 94.2188 249.188 94.625 248.688 95ZM291.672 55.625C292.484 53.75 293.859 52.0312 295.797 50.4688L298 48.6875L308.688 42.0312C310.469 42.5 312.672 43.4062 315.297 44.75C317.797 46.0312 320.141 47.7344 322.328 49.8594C325.078 52.5469 327.016 55.4375 328.141 58.5312C329.359 61.5312 330.016 64.8125 330.109 68.375C330.328 77.25 330.906 84.125 331.844 89L332.219 90.6875C330.094 90.9375 328.188 91.375 326.5 92C323.781 93 321.75 94 320.406 95C321.594 86.5625 322.188 78.1719 322.188 69.8281C322.188 69.4219 322.188 69 322.188 68.5625C322.188 65 321.625 62.2812 320.5 60.4062C318.531 57.5 315.812 55.2344 312.344 53.6094C309.219 52.1406 304.594 50.7344 298.469 49.3906C297.969 50.1719 297.719 51.5312 297.719 53.4688C297.719 54.6875 297.922 56.2812 298.328 58.25L291.672 55.625ZM310.516 95C308.734 94.375 305.906 93.0625 302.031 91.0625C299.125 89.5625 296.312 87.3125 293.594 84.3125C291.594 81.1875 290.594 78.2969 290.594 75.6406C290.594 75.5781 290.594 75.5 290.594 75.4062C291.062 71.625 292.812 68.5625 295.844 66.2188C300.969 62.2812 307.391 60.2812 315.109 60.2188C305.578 63.7188 300.062 67.625 298.562 71.9375C298.25 72.8438 298.094 73.7188 298.094 74.5625C298.094 76 298.594 77.2812 299.594 78.4062C302.281 81.125 304.547 82.9375 306.391 83.8438C312.047 86.625 316.703 88.1875 320.359 88.5312L310.516 95Z" fill="white"/>
</svg>
