<svg width="144" height="146" viewBox="0 0 144 146" fill="none" xmlns="http://www.w3.org/2000/svg">
<rect width="144" height="146" rx="20" fill="black"/>
<g style="mix-blend-mode:luminosity">
<path d="M108.75 112.25C107.042 112.458 105.396 112.771 103.812 113.188C102.229 113.604 100.75 114.083 99.375 114.625C98 115.167 96.7708 115.729 95.6875 116.312C94.6042 116.896 93.7083 117.458 93 118C92.3333 115.458 91.25 111.667 89.75 106.625C88.25 101.583 86.3125 95.25 83.9375 87.625C81.6875 87.4167 79.4375 87.25 77.1875 87.125C74.9792 87 72.7083 86.9375 70.375 86.9375C69.7083 86.9375 69.1042 86.9583 68.5625 87C68.0208 87 67.5417 87 67.125 87C59.9167 87 54.0417 87.375 49.5 88.125L48.875 88.25C46.5417 94.8333 44.7708 100.062 43.5625 103.938C42.3542 107.812 41.75 110.396 41.75 111.688V112.5C35.875 113.667 31.625 115.5 29 118C31.875 112.208 34.9167 105.646 38.125 98.3125C41.3333 90.9375 44.75 82.6667 48.375 73.5C54.9167 56.8333 58.9792 42.8333 60.5625 31.5L60.8125 29C65.8958 28.4583 71.1458 26.6458 76.5625 23.5625C77.8542 35.9375 82.0833 51.7292 89.25 70.9375C96.9583 91.6875 103.458 105.458 108.75 112.25ZM82 81.375L79.3125 72.8125C76.4792 63.7708 74.0625 56.7083 72.0625 51.625C70.1042 46.5 68.5833 43.2917 67.5 42C65.2917 45.25 60.8333 55.875 54.125 73.875L51.375 81.25C53.5 81.4583 55.7292 81.625 58.0625 81.75C60.4375 81.875 62.9375 81.9375 65.5625 81.9375H66.875C73.0833 81.9375 78.125 81.75 82 81.375Z" fill="white"/>
</g>
</svg>
